<svg width="894" height="896" viewBox="0 0 894 896" fill="none" xmlns="http://www.w3.org/2000/svg">
<path d="M436.509 6.89444C441.08 -1.33851 452.92 -1.33851 457.491 6.89443L463.901 18.4383C468.15 26.0901 478.896 26.7662 484.071 19.7072L491.877 9.05777C497.444 1.46269 509.19 2.9466 512.694 11.6876L517.606 23.9438C520.862 32.0677 531.439 34.0855 537.458 27.7306L546.537 18.1435C553.012 11.3061 564.48 14.2505 566.86 23.3616L570.198 36.1369C572.41 44.6049 582.651 47.9324 589.418 42.3819L599.627 34.0083C606.908 28.0364 617.917 32.3948 619.136 41.7325L620.846 54.8253C621.98 63.5038 631.723 68.0886 639.132 63.4301L650.311 56.402C658.283 51.3897 668.658 57.0936 668.698 66.5104L668.753 79.7143C668.79 88.4665 677.882 94.2362 685.817 90.5431L697.788 84.9715C706.325 80.9979 715.904 87.9571 714.763 97.3047L713.163 110.411C712.103 119.099 720.4 125.963 728.735 123.293L741.31 119.266C750.278 116.394 758.909 124.499 756.605 133.63L753.375 146.432C751.235 154.919 758.606 162.768 767.21 161.165L780.19 158.745C789.448 157.02 796.995 166.142 793.565 174.912L788.756 187.209C785.568 195.361 791.898 204.072 800.635 203.559L813.816 202.786C823.217 202.234 829.561 212.231 825.059 220.502L818.747 232.099C814.563 239.787 819.75 249.223 828.483 249.809L841.657 250.694C851.053 251.324 856.094 262.037 850.591 269.679L842.875 280.394C837.761 287.496 841.724 297.508 850.315 299.184L863.274 301.713C872.517 303.517 876.176 314.777 869.758 321.669L860.76 331.332C854.796 337.737 857.474 348.167 865.786 350.906L878.326 355.04C887.27 357.987 889.489 369.617 882.258 375.65L872.12 384.11C865.4 389.717 866.749 400.4 874.653 404.16L886.576 409.832C895.08 413.878 895.823 425.694 887.894 430.773L876.775 437.895C869.405 442.616 869.405 453.384 876.775 458.105L887.894 465.227C895.823 470.306 895.08 482.122 886.576 486.168L874.653 491.84C866.749 495.6 865.4 506.283 872.12 511.89L882.258 520.349C889.489 526.383 887.27 538.013 878.326 540.96L865.786 545.093C857.474 547.833 854.796 558.263 860.76 564.668L869.758 574.331C876.176 581.223 872.517 592.483 863.274 594.287L850.315 596.816C841.724 598.492 837.761 608.504 842.875 615.606L850.591 626.321C856.094 633.963 851.053 644.675 841.657 645.306L828.483 646.191C819.75 646.777 814.563 656.213 818.747 663.901L825.059 675.498C829.561 683.769 823.217 693.766 813.816 693.214L800.635 692.441C791.898 691.928 785.568 700.639 788.756 708.79L793.565 721.088C796.995 729.858 789.448 738.98 780.19 737.255L767.21 734.835C758.606 733.231 751.235 741.081 753.375 749.567L756.605 762.37C758.909 771.501 750.278 779.606 741.31 776.734L728.735 772.706C720.4 770.037 712.103 776.901 713.163 785.588L714.763 798.695C715.904 808.043 706.325 815.002 697.788 811.028L685.817 805.457C677.882 801.764 668.79 807.533 668.753 816.286L668.698 829.489C668.658 838.906 658.283 844.61 650.311 839.598L639.132 832.57C631.723 827.911 621.98 832.496 620.846 841.175L619.136 854.267C617.917 863.605 606.908 867.964 599.627 861.992L589.418 853.618C582.651 848.068 572.41 851.395 570.198 859.863L566.86 872.638C564.48 881.749 553.012 884.694 546.537 877.856L537.458 868.269C531.439 861.914 520.862 863.932 517.606 872.056L512.694 884.312C509.19 893.053 497.444 894.537 491.877 886.942L484.071 876.293C478.896 869.234 468.15 869.91 463.901 877.562L457.491 889.105C452.92 897.338 441.08 897.338 436.509 889.105L430.099 877.562C425.85 869.91 415.104 869.234 409.929 876.293L402.123 886.942C396.556 894.537 384.81 893.053 381.306 884.312L376.394 872.056C373.138 863.932 362.56 861.914 356.542 868.269L347.463 877.856C340.988 884.694 329.52 881.749 327.14 872.638L323.802 859.863C321.59 851.395 311.349 848.068 304.582 853.618L294.373 861.992C287.092 867.963 276.083 863.605 274.864 854.267L273.154 841.175C272.02 832.496 262.277 827.911 254.867 832.57L243.689 839.598C235.717 844.61 225.342 838.906 225.302 829.489L225.247 816.286C225.21 807.533 216.118 801.764 208.183 805.457L196.212 811.028C187.675 815.002 178.096 808.043 179.237 798.695L180.837 785.588C181.897 776.901 173.6 770.037 165.265 772.706L152.69 776.734C143.722 779.606 135.091 771.501 137.395 762.37L140.624 749.567C142.765 741.081 135.394 733.231 126.79 734.835L113.81 737.255C104.552 738.98 97.0053 729.858 100.435 721.088L105.244 708.79C108.432 700.639 102.102 691.928 93.365 692.441L80.1837 693.214C70.783 693.766 64.4389 683.769 68.9408 675.498L75.253 663.901C79.4371 656.213 74.2496 646.777 65.517 646.191L52.3427 645.306C42.9469 644.675 37.9058 633.963 43.4088 626.321L51.1248 615.606C56.2394 608.504 52.2754 598.492 43.6852 596.816L30.7257 594.287C21.483 592.483 17.8244 581.223 24.2417 574.331L33.2398 564.668C39.2042 558.263 36.5263 547.833 28.2139 545.093L15.6735 540.96C6.72978 538.013 4.51123 526.383 11.7418 520.349L21.8801 511.89C28.6002 506.283 27.2506 495.6 19.3472 491.84L7.4236 486.168C-1.08013 482.122 -1.82355 470.306 6.1061 465.227L17.2247 458.105C24.5946 453.384 24.5946 442.616 17.2247 437.895L6.10609 430.773C-1.82356 425.694 -1.08013 413.878 7.4236 409.832L19.3472 404.16C27.2506 400.4 28.6002 389.717 21.8801 384.11L11.7418 375.65C4.51124 369.617 6.72979 357.987 15.6735 355.04L28.2139 350.906C36.5263 348.167 39.2042 337.737 33.2398 331.332L24.2417 321.669C17.8244 314.777 21.483 303.517 30.7257 301.713L43.6852 299.184C52.2754 297.508 56.2394 287.496 51.1248 280.394L43.4088 269.679C37.9058 262.037 42.9469 251.324 52.3427 250.694L65.517 249.809C74.2496 249.223 79.4371 239.787 75.253 232.099L68.9408 220.502C64.4389 212.231 70.783 202.234 80.1837 202.786L93.3651 203.559C102.102 204.072 108.432 195.361 105.244 187.209L100.435 174.912C97.0053 166.142 104.552 157.019 113.81 158.745L126.79 161.165C135.394 162.768 142.765 154.919 140.624 146.432L137.395 133.63C135.091 124.499 143.722 116.394 152.69 119.266L165.265 123.293C173.6 125.963 181.897 119.099 180.837 110.411L179.237 97.3047C178.096 87.9571 187.675 80.9979 196.212 84.9715L208.183 90.5431C216.118 94.2362 225.21 88.4665 225.247 79.7143L225.302 66.5104C225.342 57.0936 235.717 51.3897 243.689 56.402L254.867 63.4301C262.277 68.0886 272.02 63.5038 273.154 54.8253L274.864 41.7325C276.083 32.3948 287.092 28.0364 294.373 34.0083L304.582 42.3819C311.349 47.9324 321.59 44.6049 323.802 36.1368L327.14 23.3616C329.52 14.2505 340.988 11.3061 347.463 18.1435L356.542 27.7306C362.56 34.0855 373.138 32.0677 376.394 23.9438L381.306 11.6876C384.81 2.9466 396.556 1.46269 402.123 9.05777L409.929 19.7072C415.104 26.7662 425.85 26.0901 430.099 18.4383L436.509 6.89444Z" fill="#222220"/>
<path d="M112.6 318.8H202.6C240.2 318.8 268.067 330.8 286.2 354.8C304.333 378.8 313.4 413.333 313.4 458.4C313.4 503.467 304.333 538 286.2 562C268.067 586 240.2 598 202.6 598H112.6V318.8ZM198.6 550.8C216.467 550.8 229.533 545.067 237.8 533.6C246.067 522.133 250.2 505.467 250.2 483.6V432.8C250.2 411.2 246.067 394.667 237.8 383.2C229.533 371.733 216.467 366 198.6 366H171.8V550.8H198.6Z" fill="white"/>
<path d="M356.844 598V553.6H416.844V363.2H356.844V318.8H536.844V363.2H476.844V553.6H536.844V598H356.844Z" fill="white"/>
<path d="M656.687 598V499.2L568.287 318.8H635.087L664.687 383.6L686.287 438.4H689.487L711.087 383.6L740.687 318.8H805.087L716.687 499.2V598H656.687Z" fill="white"/>
</svg>
